<?xml version="1.0" standalone="no"?>
<!DOCTYPE svg PUBLIC "-//W3C//DTD SVG 20010904//EN"
 "http://www.w3.org/TR/2001/REC-SVG-20010904/DTD/svg10.dtd">
<svg version="1.0" xmlns="http://www.w3.org/2000/svg"
 width="600.000000pt" height="600.000000pt" viewBox="0 0 600.000000 600.000000"
 preserveAspectRatio="xMidYMid meet">
<metadata>
Created by potrace 1.14, written by Peter Selinger 2001-2017
</metadata>
<g transform="translate(0.000000,600.000000) scale(0.100000,-0.100000)"
fill="#000000" stroke="none">
<path d="M2820 5749 c0 -5 6 -9 14 -9 7 0 19 -6 26 -14 9 -12 5 -16 -24 -22
-20 -3 -50 -4 -66 -2 -17 3 -30 2 -30 -1 0 -15 -48 -33 -99 -37 -83 -6 -95
-11 -147 -50 -27 -21 -50 -32 -52 -26 -2 6 -14 4 -34 -5 l-31 -16 32 -13 c47
-20 40 -53 -17 -81 -2 0 -5 -7 -7 -15 -12 -52 -18 -58 -47 -56 -16 1 -34 8
-40 15 -12 15 -12 16 28 4 29 -8 32 -7 30 14 0 13 -4 21 -8 18 -5 -2 -8 3 -8
12 0 9 5 13 10 10 6 -3 13 1 16 9 3 9 14 16 24 16 14 0 30 18 30 35 0 4 -60
25 -72 25 -8 0 -30 -45 -32 -65 -1 -5 -12 -10 -26 -10 -28 1 -41 -19 -33 -51
3 -15 -3 -27 -17 -37 -12 -9 -19 -20 -15 -26 3 -6 -1 -11 -9 -11 -10 0 -13 -6
-9 -16 5 -13 7 -13 14 -2 7 10 9 8 9 -6 0 -13 -5 -17 -20 -13 -11 3 -17 1 -14
-4 3 -5 -5 -13 -18 -18 -13 -6 -19 -10 -14 -10 5 -1 3 -8 -5 -17 -10 -13 -10
-17 1 -24 11 -7 9 -11 -10 -19 -14 -5 -19 -10 -12 -10 7 -1 11 -5 8 -10 -4 -5
2 -7 13 -4 25 6 35 -12 17 -30 -8 -8 -12 -18 -8 -22 4 -3 -4 -4 -18 0 -19 4
-28 1 -37 -14 -12 -19 -11 -20 13 -11 34 13 47 13 38 -2 -4 -7 -3 -8 4 -4 7 4
22 0 34 -10 l23 -16 -23 5 c-18 4 -22 2 -18 -9 8 -20 -15 -27 -50 -14 -26 9
-27 9 -11 -4 18 -14 17 -14 -2 -21 -12 -3 -19 -10 -16 -15 3 -5 18 -1 34 8 24
14 32 14 45 3 9 -7 16 -21 16 -30 0 -14 -2 -14 -10 -1 -9 13 -11 13 -21 0 -8
-11 -12 -12 -16 -2 -8 19 -23 14 -23 -8 0 -11 -4 -20 -10 -20 -5 0 -10 6 -10
14 0 9 -8 12 -24 9 -18 -4 -23 -10 -21 -25 3 -15 0 -18 -11 -14 -9 3 -18 6
-20 6 -3 0 -2 6 2 13 4 6 -2 3 -13 -8 -11 -11 -18 -24 -15 -29 3 -5 -3 -6 -12
-3 -10 4 -20 7 -22 7 -3 0 -3 3 -1 8 3 4 -5 8 -18 8 -17 1 -21 -3 -18 -15 3
-13 14 -17 41 -16 19 0 37 6 40 13 2 7 8 12 13 12 6 0 5 -9 -1 -21 -7 -11 -9
-23 -7 -26 3 -2 8 5 12 16 9 28 43 30 90 6 22 -11 41 -20 42 -20 1 0 4 -15 8
-33 4 -25 2 -30 -10 -26 -9 4 -15 0 -15 -10 0 -10 6 -13 15 -10 17 7 19 -9 4
-37 -5 -11 -15 -17 -21 -13 -7 4 -6 10 3 16 10 6 6 7 -11 2 -29 -8 -59 -34
-39 -34 7 0 10 -3 6 -6 -7 -8 -67 18 -67 28 0 5 -4 8 -10 8 -5 0 -10 -6 -10
-13 0 -7 -24 -21 -53 -31 -38 -13 -53 -23 -53 -36 0 -10 3 -17 7 -14 4 2 11
-5 14 -17 4 -12 2 -24 -3 -28 -13 -8 -2 -27 15 -26 14 0 30 15 16 15 -5 0 -10
7 -10 15 0 10 6 14 15 10 7 -3 25 -8 38 -11 13 -3 24 -10 24 -16 0 -5 5 -6 10
-3 6 4 8 11 5 16 -4 5 -1 9 4 9 6 0 11 -4 11 -10 0 -6 10 -5 25 2 13 6 22 14
20 19 -8 12 16 22 27 11 18 -18 39 -3 27 19 -7 15 -6 19 6 19 8 0 15 -6 15
-14 0 -10 7 -12 23 -9 21 5 21 5 3 -9 -17 -14 -17 -15 -2 -21 9 -4 14 -3 11 2
-3 5 4 13 16 16 17 6 19 9 8 16 -8 5 -9 9 -3 9 6 0 11 7 11 15 0 8 -5 15 -11
15 -6 0 -4 5 4 10 12 8 12 10 -5 11 l-20 0 20 9 c11 5 15 9 8 9 -6 1 -9 10 -6
21 3 11 1 20 -5 20 -6 0 -12 -7 -14 -15 -6 -27 -26 -1 -21 28 4 22 8 25 19 16
11 -9 14 -8 14 1 0 16 46 -50 55 -79 5 -15 2 -21 -9 -21 -9 0 -16 -7 -16 -15
0 -8 9 -15 20 -15 18 0 19 -3 10 -20 -6 -11 -15 -18 -20 -15 -6 3 -7 -1 -4 -9
4 -11 0 -16 -11 -16 -10 0 -14 5 -9 13 4 6 -3 2 -15 -10 -23 -24 -27 -43 -10
-43 5 0 8 4 5 9 -3 5 8 14 24 20 22 7 30 7 30 -2 0 -8 3 -8 12 1 36 36 34 -27
-2 -76 -14 -19 -21 -46 -23 -89 -1 -35 0 -63 4 -63 4 0 10 -11 13 -24 3 -13
26 -39 51 -57 39 -30 44 -39 45 -72 0 -25 5 -40 16 -44 9 -3 27 -16 41 -29 22
-20 24 -28 18 -65 -9 -51 9 -68 36 -36 10 12 18 17 19 11 0 -21 -72 -93 -169
-168 -94 -72 -120 -88 -107 -67 3 5 -8 14 -24 21 -16 7 -27 16 -24 21 2 5 -4
14 -16 21 -26 16 -25 25 3 49 12 10 17 18 11 19 -14 0 -69 -52 -84 -80 -6 -12
-14 -19 -17 -16 -3 3 4 22 16 42 12 20 19 39 16 42 -3 3 -5 0 -5 -6 0 -7 -12
-10 -27 -8 -16 2 -22 1 -16 -1 10 -3 10 -7 0 -17 -16 -18 -36 -9 -32 14 3 17
1 18 -15 8 -10 -6 -16 -18 -13 -25 3 -7 1 -13 -5 -13 -6 0 -12 5 -14 10 -2 7
-11 5 -23 -4 -20 -14 -20 -15 2 -23 21 -8 22 -10 8 -36 -13 -26 -13 -28 10
-39 13 -6 22 -15 19 -20 -3 -5 0 -15 6 -23 17 -21 -47 -81 -102 -95 -24 -7
-72 -22 -108 -35 -183 -64 -169 -55 -189 -125 -22 -75 -33 -99 -62 -140 -55
-76 -75 -151 -55 -215 9 -32 9 -45 -1 -66 -11 -21 -11 -36 -2 -70 9 -36 8 -59
-6 -124 -10 -44 -17 -96 -17 -115 3 -111 0 -176 -10 -265 -20 -180 -2 -345 57
-540 13 -44 33 -116 44 -160 47 -197 107 -345 156 -383 25 -20 39 -22 129 -21
81 1 112 -3 156 -20 30 -11 68 -21 83 -21 16 0 26 -4 23 -8 -3 -4 -32 -7 -65
-5 -40 2 -64 -2 -73 -10 -11 -11 -13 -103 -13 -458 0 -412 1 -447 18 -472 34
-53 68 -65 187 -66 119 -2 123 0 127 59 2 19 7 64 12 100 8 57 9 53 4 -39 -4
-98 -3 -104 13 -90 42 35 44 58 44 514 l0 435 29 0 29 0 -2 -250 c-1 -169 1
-250 9 -250 7 0 7 -3 0 -8 -20 -14 -15 -50 8 -56 12 -3 33 -15 47 -26 l25 -21
-40 21 c-22 11 -43 20 -47 20 -5 0 -8 -89 -8 -199 l0 -198 61 -2 c103 -3 94
-27 94 265 0 141 3 258 6 260 6 3 17 -78 24 -171 2 -23 15 -129 21 -165 2 -14
6 -49 10 -78 8 -79 12 -95 26 -104 16 -10 108 -11 109 0 0 4 2 16 5 27 2 11 5
47 8 80 2 33 7 67 9 75 6 14 11 53 22 150 2 25 7 56 10 70 3 14 8 45 11 70 8
62 14 63 14 2 0 -49 1 -52 26 -52 14 0 23 -4 19 -10 -3 -5 -12 -7 -20 -4 -8 4
-18 -1 -21 -10 -8 -22 -10 -393 -2 -401 12 -12 130 -11 142 1 7 7 11 72 11
185 0 159 -1 174 -17 173 -10 -1 -15 3 -12 10 3 6 -1 3 -9 -7 -13 -16 -15 -16
-21 -1 -10 25 -8 27 27 21 l33 -5 2 146 c5 380 4 463 -2 469 -4 4 -51 7 -106
8 -55 1 -102 4 -105 7 -11 11 88 16 220 11 72 -2 139 -4 150 -4 29 -1 167 51
180 67 5 7 33 25 60 40 l50 26 255 -3 c362 -4 424 -1 505 22 39 12 76 23 83
25 23 7 86 165 102 257 40 232 50 310 56 437 7 142 6 148 -24 255 -35 125 -52
271 -52 454 -1 249 -33 378 -137 542 -46 73 -119 123 -193 132 -91 12 -337
118 -323 140 3 6 1 7 -5 3 -12 -7 -52 13 -52 26 0 4 8 5 18 2 9 -3 6 2 -8 10
-16 10 -19 15 -10 16 13 0 13 1 0 10 -8 5 -23 7 -33 4 -32 -10 -117 60 -97 80
12 12 13 29 1 22 -5 -3 -11 1 -15 9 -3 8 0 15 7 15 15 0 46 -20 32 -20 -5 0
-2 -5 8 -11 11 -7 23 -7 35 0 9 6 11 11 5 11 -7 0 -13 5 -13 11 0 5 4 8 8 5 4
-2 13 4 20 14 10 16 9 18 -5 13 -10 -4 -14 -2 -10 4 4 6 1 14 -5 17 -7 4 -3 4
8 2 29 -5 25 20 -6 44 -15 11 -19 20 -11 24 6 4 11 2 11 -5 0 -7 2 -10 5 -7 4
3 -5 22 -18 41 -14 20 -27 33 -31 30 -3 -4 -6 -1 -6 5 0 7 6 12 14 12 8 0 22
3 31 7 15 5 16 1 11 -24 -6 -28 -4 -31 24 -37 27 -5 30 -9 25 -28 -6 -23 -6
-23 13 2 l20 24 -1 -29 c-1 -17 -6 -34 -12 -38 -5 -5 0 -6 11 -2 14 4 24 0 28
-10 4 -11 -1 -15 -17 -15 l-21 0 21 -21 c24 -24 93 -33 93 -11 0 8 8 10 23 7
15 -4 28 -1 36 9 7 9 17 13 22 10 5 -3 2 -12 -7 -21 -11 -11 -12 -19 -4 -27 8
-8 13 -7 19 2 8 14 41 6 41 -10 0 -6 14 -7 33 -3 56 11 67 16 62 26 -4 5 -2 9
4 9 7 0 7 8 1 25 -6 16 -6 25 0 25 6 0 10 -5 10 -11 0 -5 5 -7 11 -4 6 4 8 13
5 21 -3 8 -1 14 4 14 14 0 12 34 -2 48 -10 10 -10 15 2 22 13 9 13 13 -1 38
-19 34 -7 59 26 55 11 -1 14 0 7 3 -6 3 -9 10 -6 16 4 6 0 14 -7 19 -11 7 -11
9 -1 9 8 0 10 5 6 12 -5 8 -2 9 9 5 10 -3 17 -2 17 3 0 6 -8 10 -17 10 -15 0
-16 2 -3 10 12 7 11 12 -8 28 -19 17 -20 21 -7 26 9 3 13 10 10 16 -4 6 -11 8
-16 5 -5 -4 -9 -2 -9 4 0 5 6 11 12 13 10 4 10 10 0 32 -7 15 -10 32 -6 37 3
6 0 16 -6 24 -6 8 -9 19 -5 25 3 5 2 10 -4 10 -5 0 -12 -6 -14 -12 -3 -8 -6
-6 -6 5 -1 10 9 22 22 27 21 8 21 11 -5 14 -7 1 -12 9 -12 19 1 9 -2 15 -6 12
-5 -3 -11 1 -13 7 -4 10 -7 10 -14 1 -6 -8 -14 -9 -23 -3 -10 7 -11 10 -2 10
10 0 10 4 0 23 -7 12 -17 25 -23 29 -5 4 -2 15 9 27 10 11 15 25 11 31 -4 6 1
17 11 25 11 7 16 17 12 21 -4 4 0 13 10 20 14 11 14 13 2 14 -13 0 -13 1 0 10
13 9 13 10 0 10 -13 0 -13 1 0 10 13 9 13 10 0 10 -9 1 -6 5 8 10 12 5 21 17
21 27 -1 17 -2 17 -6 1 -2 -10 -9 -18 -14 -18 -11 0 0 53 13 58 4 2 8 11 8 20
0 13 -2 14 -9 4 -7 -11 -9 -11 -14 2 -6 15 4 21 28 16 6 -1 5 4 -2 11 -6 6 -9
18 -6 25 3 8 -1 14 -11 14 -9 0 -16 6 -16 13 -1 7 -6 5 -14 -6 -13 -17 -15
-16 -29 12 -11 22 -12 31 -4 31 7 0 4 7 -6 14 -12 9 -14 16 -8 21 24 14 8 22
-44 21 -42 -1 -54 2 -50 12 3 8 5 18 5 23 0 5 7 9 15 9 16 0 21 35 6 44 -5 4
-7 -3 -4 -14 3 -12 0 -20 -6 -20 -7 0 -10 4 -6 9 7 12 -28 23 -49 15 -11 -4
-16 -1 -16 10 0 12 7 14 31 9 24 -4 31 -3 27 7 -2 8 -10 16 -18 18 -7 3 -10 0
-6 -7 9 -15 -7 -14 -22 1 -9 9 -12 9 -12 1 0 -8 -20 -10 -62 -8 -34 2 -57 0
-49 -4 10 -7 10 -9 -2 -14 -10 -4 -17 2 -21 16 -8 31 -7 37 5 37 5 0 8 -4 5
-9 -4 -5 1 -8 9 -7 25 4 27 14 4 21 -17 6 -19 9 -8 16 11 7 9 9 -6 10 -17 1
-16 2 5 9 18 6 20 8 7 9 -11 1 -15 5 -11 13 5 8 2 9 -9 5 -10 -4 -17 -2 -17 4
0 7 11 9 25 6 19 -3 28 1 36 17 10 20 10 20 -5 2 -9 -11 -16 -15 -16 -8 0 6
-6 9 -13 6 -9 -3 -13 3 -13 18 1 27 27 49 34 28 3 -8 13 -3 28 15 29 34 30 45
4 38 -25 -7 -25 4 -2 31 17 21 17 21 -4 4 -23 -20 -44 -23 -44 -8 0 19 -17 10
-29 -16 -9 -21 -14 -24 -26 -14 -12 10 -15 9 -15 -9 0 -12 5 -19 10 -16 6 3
10 1 10 -4 0 -6 -7 -11 -15 -11 -10 0 -15 10 -15 34 0 34 0 34 -38 29 -27 -4
-51 1 -80 16 -23 12 -41 25 -39 29 1 4 0 7 -3 8 -3 0 -18 12 -33 26 -32 30
-101 48 -179 48 -31 0 -93 14 -159 35 -60 19 -119 35 -132 35 -13 0 -27 4 -32
9 -17 14 -75 31 -75 20z m-340 -4309 c0 -5 -5 -10 -11 -10 -5 0 -7 5 -4 10 3
6 8 10 11 10 2 0 4 -4 4 -10z m-174 -23 c3 -3 -7 -4 -22 -3 -44 5 -58 -3 -37
-21 11 -8 12 -11 3 -7 -8 4 -23 14 -32 22 -15 13 -18 13 -23 0 -3 -7 -7 -198
-8 -424 -2 -226 -7 -415 -11 -422 -4 -7 -16 -12 -27 -12 -14 0 -19 7 -20 28 0
15 -1 212 -2 439 l-2 412 40 3 c46 3 132 -5 141 -15z m24 -7 c0 -11 -4 -20 -9
-20 -5 0 -7 9 -4 20 3 11 7 20 9 20 2 0 4 -9 4 -20z m431 6 c-5 -6 -12 -47
-16 -91 -9 -106 -12 -131 -20 -190 -12 -85 -12 -89 -14 -124 -2 -72 -20 -13
-26 89 -4 58 -9 108 -11 111 -2 3 -4 32 -5 63 -2 49 -5 56 -23 57 -17 1 -18 2
-3 6 12 3 17 15 17 43 0 43 8 49 67 48 30 -1 40 -5 34 -12z m-434 -83 c-3 -10
-5 -2 -5 17 0 19 2 27 5 18 2 -10 2 -26 0 -35z m220 -457 c10 -10 -61 -6 -77
4 -11 7 -3 9 28 6 24 -2 46 -7 49 -10z m373 -61 c-7 -8 -17 -15 -23 -15 -6 0
-2 7 9 15 25 19 30 19 14 0z m-10 -38 c0 -5 -7 -7 -15 -3 -8 3 -15 1 -15 -4 0
-6 -5 -10 -11 -10 -8 0 -8 4 0 13 12 16 41 18 41 4z m-172 -66 c3 -9 -6 -11
-34 -9 -20 2 -39 9 -42 16 -3 10 6 13 34 10 21 -2 40 -10 42 -17z m39 4 c0 -8
-4 -12 -9 -9 -5 3 -6 10 -3 15 9 13 12 11 12 -6z"/>
<path d="M3670 5551 c0 -18 18 -21 30 -6 10 13 9 15 -9 15 -11 0 -21 -4 -21
-9z"/>
<path d="M3627 5543 c-4 -3 -7 -11 -7 -17 0 -6 5 -5 12 2 6 6 9 14 7 17 -3 3
-9 2 -12 -2z"/>
<path d="M2300 5530 c0 -5 5 -10 11 -10 5 0 7 5 4 10 -3 6 -8 10 -11 10 -2 0
-4 -4 -4 -10z"/>
<path d="M3720 5290 c-9 -6 -10 -10 -3 -10 6 0 15 5 18 10 8 12 4 12 -15 0z"/>
<path d="M3920 5190 c0 -5 5 -10 11 -10 5 0 7 5 4 10 -3 6 -8 10 -11 10 -2 0
-4 -4 -4 -10z"/>
<path d="M2116 5111 c-6 -8 43 -35 51 -27 2 2 -5 7 -16 11 -12 3 -19 11 -16
16 4 5 2 9 -4 9 -5 0 -12 -4 -15 -9z"/>
<path d="M3970 5100 c0 -5 5 -10 10 -10 6 0 10 5 10 10 0 6 -4 10 -10 10 -5 0
-10 -4 -10 -10z"/>
<path d="M2092 4918 c-14 -39 -12 -43 10 -14 9 13 13 28 9 34 -4 7 -11 -1 -19
-20z"/>
<path d="M2070 4930 c0 -5 5 -10 10 -10 6 0 10 5 10 10 0 6 -4 10 -10 10 -5 0
-10 -4 -10 -10z"/>
<path d="M2120 4910 c-8 -5 -11 -12 -7 -16 3 -4 13 -2 20 4 8 7 17 9 20 5 4
-3 7 -1 7 5 0 14 -19 15 -40 2z"/>
<path d="M1936 4902 c-3 -6 9 -16 29 -23 34 -13 35 -13 13 -25 l-21 -12 23 -7
c17 -6 20 -9 9 -16 -19 -12 -32 -11 -24 1 4 6 -1 7 -11 3 -16 -6 -15 -7 2 -20
24 -17 34 -17 49 4 8 11 18 14 31 9 24 -9 29 -8 29 4 0 6 6 15 14 19 11 7 9
10 -8 16 -13 4 -20 9 -18 12 7 7 -25 43 -38 43 -5 0 -4 -4 3 -8 16 -10 24 -52
11 -52 -6 0 -7 -4 -4 -10 8 -12 -5 -13 -24 -1 -11 7 -10 11 4 19 17 9 17 10
-4 17 -12 3 -18 11 -15 17 5 8 1 9 -11 4 -10 -4 -21 -2 -25 5 -5 7 -10 8 -14
1z"/>
<path d="M2103 4845 c0 -8 6 -15 14 -15 7 0 13 7 13 15 0 8 -6 15 -13 15 -8 0
-14 -7 -14 -15z"/>
<path d="M2002 4651 c-8 -5 -14 -12 -13 -17 0 -5 -11 -8 -25 -7 -13 1 -24 -3
-24 -8 0 -6 5 -7 10 -4 13 8 13 3 -1 -32 -10 -28 -10 -28 9 -8 11 11 18 23 15
28 -6 10 2 9 31 -4 16 -8 23 -17 19 -28 -4 -13 -3 -14 5 -1 8 10 8 18 0 27 -8
10 -6 13 5 13 8 0 18 7 21 16 8 21 -2 33 -13 15 -7 -11 -10 -10 -17 2 -6 10
-14 13 -22 8z"/>
<path d="M2080 4640 c-15 -28 -6 -37 16 -16 12 12 14 20 6 28 -7 7 -14 3 -22
-12z"/>
<path d="M2185 4651 c-3 -5 -2 -12 3 -15 5 -3 9 1 9 9 0 17 -3 19 -12 6z"/>
<path d="M2245 4650 c3 -5 8 -10 11 -10 2 0 4 5 4 10 0 6 -5 10 -11 10 -5 0
-7 -4 -4 -10z"/>
<path d="M2130 4640 c0 -5 7 -10 15 -10 8 0 15 5 15 10 0 6 -7 10 -15 10 -8 0
-15 -4 -15 -10z"/>
<path d="M2265 4630 c-3 -5 -2 -10 4 -10 5 0 13 5 16 10 3 6 2 10 -4 10 -5 0
-13 -4 -16 -10z"/>
<path d="M2230 4595 c0 -8 5 -15 10 -15 6 0 10 5 10 11 0 5 5 7 12 3 7 -4 8
-3 4 4 -10 17 -36 15 -36 -3z"/>
<path d="M1970 4540 c0 -5 5 -10 10 -10 6 0 10 5 10 10 0 6 -4 10 -10 10 -5 0
-10 -4 -10 -10z"/>
<path d="M1840 4514 c0 -14 3 -14 15 -4 8 7 15 14 15 16 0 2 -7 4 -15 4 -8 0
-15 -7 -15 -16z"/>
<path d="M1880 4510 c0 -5 5 -10 10 -10 6 0 10 5 10 10 0 6 -4 10 -10 10 -5 0
-10 -4 -10 -10z"/>
<path d="M1800 4506 c0 -2 7 -7 16 -10 8 -3 12 -2 9 4 -6 10 -25 14 -25 6z"/>
<path d="M2190 4506 c0 -2 7 -7 16 -10 8 -3 12 -2 9 4 -6 10 -25 14 -25 6z"/>
<path d="M1845 4480 c3 -5 8 -10 11 -10 2 0 4 5 4 10 0 6 -5 10 -11 10 -5 0
-7 -4 -4 -10z"/>
<path d="M2181 4483 c-1 -7 6 -16 16 -21 9 -5 14 -16 10 -24 -4 -11 1 -14 19
-10 29 5 32 32 4 32 -11 0 -20 5 -20 11 0 5 -4 8 -9 5 -5 -4 -12 0 -14 6 -4
10 -6 10 -6 1z"/>
<path d="M1825 4450 c-3 -5 1 -10 9 -10 9 0 16 5 16 10 0 6 -4 10 -9 10 -6 0
-13 -4 -16 -10z"/>
<path d="M1860 4435 c-7 -9 -8 -15 -2 -15 5 0 12 7 16 15 3 8 4 15 2 15 -2 0
-9 -7 -16 -15z"/>
<path d="M2180 4439 c0 -5 5 -7 10 -4 6 3 10 8 10 11 0 2 -4 4 -10 4 -5 0 -10
-5 -10 -11z"/>
<path d="M2345 4300 c3 -5 11 -10 16 -10 6 0 7 5 4 10 -3 6 -11 10 -16 10 -6
0 -7 -4 -4 -10z"/>
<path d="M2298 4262 c7 -5 10 -16 6 -25 -3 -10 -1 -17 6 -17 6 0 8 -4 5 -10
-3 -5 -1 -10 5 -10 7 0 9 8 5 20 -5 15 -2 20 12 20 14 1 13 4 -7 15 -26 15
-54 21 -32 7z"/>
<path d="M2273 4228 c-2 -16 1 -18 10 -9 7 7 8 14 1 21 -6 6 -10 2 -11 -12z"/>
<path d="M2245 4230 c-3 -5 -1 -10 4 -10 6 0 11 5 11 10 0 6 -2 10 -4 10 -3 0
-8 -4 -11 -10z"/>
<path d="M2336 4203 c-6 -19 -11 -21 -26 -13 -25 13 -72 9 -66 -6 3 -7 -2 -15
-10 -18 -23 -9 -36 -7 -30 3 10 16 -26 5 -38 -11 -6 -8 -16 -13 -22 -11 -6 2
-16 -8 -22 -22 -7 -15 -8 -24 -2 -20 10 6 14 -7 11 -34 -2 -7 2 -10 8 -6 6 3
11 14 11 23 1 30 24 62 38 53 11 -6 10 -10 -3 -15 -14 -5 -15 -9 -5 -21 10
-11 9 -18 -4 -31 -19 -18 -17 -35 5 -43 12 -4 12 -2 0 12 -14 17 -5 23 14 9
12 -8 13 -32 2 -49 -9 -14 12 -30 22 -17 3 5 11 9 16 10 29 1 64 17 58 27 -4
7 0 8 13 3 15 -5 16 -4 7 5 -6 6 -9 18 -6 25 3 8 0 14 -6 14 -8 0 -8 4 1 14 7
7 19 11 27 8 8 -3 20 3 27 13 9 12 19 15 31 10 12 -5 14 -9 6 -12 -7 -3 -13
-9 -13 -15 0 -6 8 -4 18 5 10 10 22 14 27 10 4 -5 5 -2 1 5 -4 6 -14 12 -21
12 -9 0 -12 6 -9 18 5 13 4 14 -4 3 -7 -10 -14 -10 -30 -2 -16 8 -21 7 -26 -6
-4 -9 -9 -13 -12 -10 -3 3 2 19 11 37 9 17 15 39 13 48 -3 14 -6 12 -12 -5z"/>
<path d="M2365 4200 c-7 -12 2 -30 16 -30 6 0 7 5 4 10 -3 6 -1 10 5 10 6 0 8
5 5 10 -3 6 -10 10 -15 10 -5 0 -12 -4 -15 -10z"/>
<path d="M2100 4184 c0 -8 5 -12 10 -9 6 3 10 10 10 16 0 5 -4 9 -10 9 -5 0
-10 -7 -10 -16z"/>
<path d="M2100 4129 c0 -5 5 -7 10 -4 6 3 10 8 10 11 0 2 -4 4 -10 4 -5 0 -10
-5 -10 -11z"/>
<path d="M3620 4121 c0 -5 7 -12 16 -15 14 -5 15 -4 4 9 -14 17 -20 19 -20 6z"/>
<path d="M2326 4065 c-9 -26 -7 -32 5 -12 6 10 9 21 6 23 -2 3 -7 -2 -11 -11z"/>
<path d="M2400 4076 c0 -2 7 -7 16 -10 8 -3 12 -2 9 4 -6 10 -25 14 -25 6z"/>
<path d="M2344 4048 c-3 -5 -3 -12 0 -15 3 -4 6 0 7 8 0 10 2 10 7 -2 6 -14 9
-14 19 -4 9 10 8 14 -8 18 -10 3 -22 1 -25 -5z"/>
<path d="M2263 3979 c1 -6 -4 -14 -12 -17 -8 -3 -11 0 -7 7 4 6 4 11 -1 11
-12 0 -35 -16 -35 -25 0 -11 24 -25 42 -24 10 0 11 2 3 6 -8 3 -3 13 15 28 22
20 24 24 10 25 -10 0 -17 -5 -15 -11z"/>
<path d="M3585 3940 c16 -31 29 -37 40 -20 3 6 -1 7 -10 4 -11 -5 -14 -2 -9
11 4 10 1 21 -7 26 -25 16 -30 9 -14 -21z"/>
<path d="M1945 3820 c-3 -6 1 -7 9 -4 18 7 21 14 7 14 -6 0 -13 -4 -16 -10z"/>
<path d="M1980 3804 c0 -8 5 -12 10 -9 6 3 10 10 10 16 0 5 -4 9 -10 9 -5 0
-10 -7 -10 -16z"/>
<path d="M1955 3770 c3 -5 8 -10 11 -10 2 0 4 5 4 10 0 6 -5 10 -11 10 -5 0
-7 -4 -4 -10z"/>
<path d="M3535 1510 c-18 -8 -17 -9 8 -9 16 -1 26 3 22 9 -3 6 -7 10 -8 9 -1
0 -11 -4 -22 -9z"/>
<path d="M3618 1503 c7 -3 16 -2 19 1 4 3 -2 6 -13 5 -11 0 -14 -3 -6 -6z"/>
<path d="M1639 1418 c0 -7 -2 -232 -4 -500 -3 -369 -1 -487 8 -490 10 -4 185
-3 250 1 14 1 17 11 17 66 l0 64 -45 -1 c-25 0 -49 3 -53 7 -4 3 -8 74 -9 157
-1 132 -4 151 -20 163 -17 13 -17 13 2 12 19 -2 19 6 20 263 l0 265 -82 3
c-62 2 -83 0 -84 -10z m66 -518 c3 -5 1 -10 -4 -10 -6 0 -11 5 -11 10 0 6 2
10 4 10 3 0 8 -4 11 -10z"/>
<path d="M3653 1419 c-18 -6 -19 -27 -21 -498 l-1 -491 22 -5 c12 -2 51 -3 87
-2 l65 3 1 194 c2 249 0 230 24 230 34 0 41 -42 38 -231 -1 -98 1 -181 5 -185
4 -4 42 -8 86 -10 67 -2 80 0 83 14 3 9 4 103 2 208 -2 194 -7 224 -43 251
-11 8 -13 16 -6 26 6 8 18 25 27 39 26 36 32 333 7 387 -29 65 -52 73 -214 75
-79 1 -152 -1 -162 -5z m204 -141 c4 -7 9 -70 10 -140 1 -104 -1 -131 -14
-143 -32 -33 -38 -12 -41 143 -2 145 -2 152 17 152 11 0 23 -6 28 -12z"/>
<path d="M4113 1422 c-20 -3 -23 -9 -24 -50 0 -26 -2 -204 -5 -397 -6 -448 -6
-533 1 -545 3 -5 40 -8 83 -7 l77 2 3 172 2 173 38 1 c110 2 146 16 179 66 16
24 18 58 21 263 3 229 3 237 -18 263 -38 48 -69 57 -207 60 -71 1 -138 1 -150
-1z m196 -146 c8 -10 11 -63 8 -180 -4 -169 -10 -197 -45 -192 -15 3 -17 21
-18 187 0 101 2 187 4 192 6 12 39 8 51 -7z"/>
<path d="M3063 1412 c-22 -3 -22 -5 -21 -205 0 -111 -1 -331 -2 -489 -1 -157
0 -290 3 -295 5 -7 237 -10 277 -4 3 1 6 29 5 64 l0 62 -40 1 c-22 1 -47 2
-56 3 -13 1 -15 23 -13 169 0 92 2 170 3 174 0 4 25 8 54 10 l52 3 0 60 0 60
-52 3 c-42 2 -53 7 -54 20 -1 21 -1 224 0 234 1 3 25 6 53 5 l52 -1 4 61 c2
52 0 62 -15 67 -19 5 -214 4 -250 -2z m127 -952 c18 -12 2 -12 -25 0 -13 6
-15 9 -5 9 8 0 22 -4 30 -9z"/>
<path d="M1630 300 l0 -30 1450 0 1450 0 0 30 0 30 -1450 0 -1450 0 0 -30z"/>
</g>
</svg>
